<?xml version="1.0" encoding="utf-8"?>
<!-- Generator: Adobe Illustrator 21.0.1, SVG Export Plug-In . SVG Version: 6.00 Build 0)  -->
<svg version="1.1" id="Layer_1" xmlns="http://www.w3.org/2000/svg" xmlns:xlink="http://www.w3.org/1999/xlink" x="0px" y="0px"
	 viewBox="0 0 450 184" style="enable-background:new 0 0 450 184;" xml:space="preserve">
<g>
	<path d="M29.4,65.8h12.5l28.3,82.6H58.3L50.9,127H20.2l-7.3,21.5H1.1L29.4,65.8z M24,115.6h22.9l-11.4-34L24,115.6z"/>
	<path d="M74.4,95.2h10.3l1.1,5.7l0.6,0.6l0.6-0.6c3.3-4.6,7.9-6.8,12.5-6.8c2.2,0,3.3,0,5.7,1.1v10.1h-6.8c-6.6,0-12.2,5.4-12.5,12
		v31H74.6V95.2H74.4z"/>
	<path d="M109,95.2h10.4V83.8l9-11.4h2.2v22.6h11.5v10.1h-11.5v27.2c0,3.3,2.4,5.7,5.8,5.7l6.8-1.1V147l-6.2,1.1
		c-11.4,0-17.4-5.7-17.4-15.8v-26.9h-10.4V95.2H109z"/>
	<path d="M178,65.8h49.8v11.4h-37.9v23.7h34.4v11.4h-34.4v36.2H178V65.8z"/>
	<path d="M277.7,148.5h-10.1l-1.1-4.6l-0.6-0.6l-0.6,0.6c-2.2,3.3-7.9,5.7-12.5,5.7c-13.6,0-21.5-9-21.5-21.5V95.2h11.4v32.9
		c0.2,7.3,3.8,11.4,11.4,11.4c6.6,0,12.2-5.4,12.5-11.8V95.2h11.4v53.2H277.7z"/>
	<path d="M285.2,95.2h10.1l1.1,4.6l0.6,0.6l0.6-0.6c2.2-3.3,7.9-5.7,12.5-5.7c13.6,0,21.5,9,21.5,21.5v32.9h-11.4v-32.9
		c-0.3-7.3-3.8-11.4-11.4-11.4c-6.6,0-12.2,5.4-12.5,12v32.1H285V95.2H285.2z"/>
	<path d="M390.9,148.5h-10.1l-1.1-4.6l-0.6-0.6l-0.6,0.6c-3.3,3.3-9,5.7-14.7,5.7c-14.7,0-27.2-11.4-27.2-27.6
		c0-16.4,12.5-27.6,27.2-27.6c5.5,0,11.4,2.2,14.7,5.7l0.6,0.6l0.6-0.6V62.4H391v86.1H390.9z M364.2,104.2
		c-10.7,0-16.6,7.9-16.6,17.5s5.8,17.5,16.6,17.5c9.6,0,16.4-7.9,16.4-17.5C380.6,112.3,373.8,104.2,364.2,104.2z"/>
	<path d="M449,148.5v10.7h-52.3v-10.7H449z"/>
</g>
</svg>
